<svg width="30" height="30" viewBox="0 0 30 30" fill="#9ca3af" xmlns="http://www.w3.org/2000/svg">
<path d="M24.5729 0H5.46063C2.46231 0 0 2.42881 0 5.42713V24.5394C0 27.5377 2.42881 30 5.42713 30H24.5394C27.5377 30 30 27.5712 30 24.5729V5.46064C30 2.46231 27.5712 0 24.5729 0Z"></path>
<path d="M25.864 13.6786C25.864 8.78747 20.9729 4.81763 14.9428 4.81763C8.91261 4.81763 4.02148 8.78747 4.02148 13.6786C4.02148 18.0672 7.90758 21.7355 13.1505 22.4223C13.5022 22.5061 13.988 22.6568 14.1052 22.9583C14.2225 23.2263 14.1722 23.6618 14.1387 23.9466C14.1387 23.9466 14.0047 24.7171 13.988 24.8846C13.9377 25.1526 13.7702 25.9567 14.926 25.4709C16.0985 24.9851 21.2242 21.7691 23.5022 19.1225C25.1103 17.3972 25.864 15.6384 25.864 13.6786Z" fill="white" stroke="white" stroke-width="1.66394" stroke-miterlimit="10"></path>
<path d="M12.7212 11.3132H11.9507C11.8334 11.3132 11.7329 11.4137 11.7329 11.531V16.2881C11.7329 16.4054 11.8334 16.5059 11.9507 16.5059H12.7212C12.8384 16.5059 12.9389 16.4054 12.9389 16.2881V11.531C12.9389 11.4137 12.8384 11.3132 12.7212 11.3132Z"></path>
<path d="M17.9951 11.3132H17.2246C17.1073 11.3132 17.0068 11.4137 17.0068 11.531V14.3618L14.8293 11.4137L14.8125 11.397L14.7958 11.3802C14.7958 11.3802 14.7958 11.3802 14.779 11.3635C14.779 11.3635 14.779 11.3635 14.7623 11.3635C14.7623 11.3635 14.7623 11.3635 14.7455 11.3635C14.7455 11.3635 14.7455 11.3635 14.7288 11.3635C14.7288 11.3635 14.7288 11.3635 14.712 11.3635C14.712 11.3635 14.712 11.3635 14.6953 11.3635C14.6953 11.3635 14.6953 11.3635 14.6785 11.3635C14.6785 11.3635 14.6785 11.3635 14.6618 11.3635C14.6618 11.3635 14.6618 11.3635 14.645 11.3635H13.8745C13.7572 11.3635 13.6567 11.464 13.6567 11.5812V16.3384C13.6567 16.4556 13.7572 16.5561 13.8745 16.5561H14.645C14.7623 16.5561 14.8628 16.4556 14.8628 16.3384V13.5075L17.0403 16.4556C17.0571 16.4724 17.0738 16.4891 17.0906 16.5059H17.1073C17.1073 16.5059 17.1073 16.5059 17.1241 16.5059C17.1241 16.5059 17.1241 16.5059 17.1408 16.5059H17.1576C17.1743 16.5059 17.1911 16.5059 17.2078 16.5059H17.9783C18.0956 16.5059 18.1961 16.4054 18.1961 16.2881V11.531C18.2129 11.4137 18.1123 11.3132 17.9951 11.3132Z"></path>
<path d="M10.8754 15.3056H8.79832V11.52C8.79832 11.4027 8.69781 11.3022 8.58056 11.3022H7.81004C7.69279 11.3022 7.59229 11.4027 7.59229 11.52V16.2771C7.59229 16.3274 7.60904 16.3944 7.65929 16.4279C7.69279 16.4614 7.74304 16.4949 7.81004 16.4949H10.8754C10.9926 16.4949 11.0931 16.3944 11.0931 16.2771V15.5066C11.0931 15.4061 10.9926 15.3056 10.8754 15.3056Z"></path>
<path d="M22.234 12.5041C22.3513 12.5041 22.4518 12.4036 22.4518 12.2864V11.5158C22.4518 11.3986 22.3513 11.2981 22.234 11.2981H19.1687C19.1184 11.2981 19.0514 11.3148 19.0179 11.3651C18.9844 11.3986 18.9509 11.4488 18.9509 11.5158V16.273C18.9509 16.3232 18.9677 16.3902 19.0179 16.4237C19.0514 16.4572 19.1017 16.4907 19.1687 16.4907H22.234C22.3513 16.4907 22.4518 16.3902 22.4518 16.273V15.5024C22.4518 15.3852 22.3513 15.2847 22.234 15.2847H20.157V14.4807H22.234C22.3513 14.4807 22.4518 14.3802 22.4518 14.2629V13.4924C22.4518 13.3751 22.3513 13.2746 22.234 13.2746H20.157V12.4706H22.234V12.5041Z"></path>
</svg>