<?xml version="1.0" encoding="utf-8"?>
<!-- Generator: Adobe Illustrator 27.8.1, SVG Export Plug-In . SVG Version: 6.00 Build 0)  -->
<svg version="1.1" id="圖層_1" xmlns="http://www.w3.org/2000/svg" xmlns:xlink="http://www.w3.org/1999/xlink" x="0px" y="0px"
	 viewBox="0 0 100 100" style="enable-background:new 0 0 100 100;" xml:space="preserve">
<style type="text/css">
	.st0{fill:#FFFFFF;}
</style>
<path class="st0" d="M79.2,76.7c-4.4,0-7.9,3.6-7.9,8c0,4.4,3.6,8,7.9,8c4.3,0,7.9-3.6,7.9-8C87,80.3,83.8,76.7,79.2,76.7z
	 M31.2,76.7c-4.4,0-7.9,3.6-7.9,8c0,4.4,3.6,8,7.9,8s7.9-3.6,7.9-8C39,80.3,35.7,76.7,31.2,76.7z M96.9,14.8c-1-1.3-2.6-2.1-4.3-2.1
	H22.2l-0.3-2.1c-0.4-1.9-2-3.3-3.9-3.3H5.8C3.8,7.3,2,9.1,2,11.2s1.8,4.2,3.9,4.2h8.7l10,52.8c0.5,1.9,2.2,3.3,4.1,3.3h54.7
	c2.2,0,4-1.8,4-3.9c0-2.4-1.8-4.2-4-4.2H32l-1.5-8h53.1c2.4,0,4.5-1.6,5.1-3.9l9.1-31.9C98.3,17.8,98,16.1,96.9,14.8z"/>
</svg>
